<?xml version="1.0" encoding="utf-8"?>
<!-- Generator: Adobe Illustrator 16.0.0, SVG Export Plug-In . SVG Version: 6.00 Build 0)  -->
<!DOCTYPE svg PUBLIC "-//W3C//DTD SVG 1.1//EN" "http://www.w3.org/Graphics/SVG/1.1/DTD/svg11.dtd">
<svg version="1.1" id="Layer_1" xmlns="http://www.w3.org/2000/svg" xmlns:xlink="http://www.w3.org/1999/xlink" x="0px" y="0px"
	 width="2160px" height="2160px" viewBox="0 0 2160 2160" enable-background="new 0 0 2160 2160" xml:space="preserve">
<g>
	<path fill-rule="evenodd" clip-rule="evenodd" fill="#9D967F" d="M328.45,426.087c-8.968,43.011-16.417,86.326-25.989,129.167
		c-12.13,54.361-34.871,104.566-63.068,152.386c-0.305,0.475-0.91,0.736-2.166,1.688c-3.855-11.392-5.155-23.043-7.233-34.393
		c-12.432-68.308-17.718-137.181-14.512-206.529c2.773-60.859,13.299-120.418,31.404-178.634
		c3.812-12.346,12.301-19.622,22.958-25.298h20.054c35.172,14.294,47.561,43.62,50.983,78.359
		C343.738,371.509,334.167,398.537,328.45,426.087z"/>
	<path fill-rule="evenodd" clip-rule="evenodd" fill="#9D967F" d="M1945.345,550.013c-2.383,51.589-9.616,102.66-19.972,153.252
		c-0.39,1.905-0.433,4.116-2.943,5.847c-14.034-22.827-25.727-46.693-36.645-71.038c-20.882-46.65-31.578-96.075-40.198-146.061
		c-6.236-36.17-15.247-71.732-22.696-107.641c-7.192-34.739-4.809-68.223,17.586-98.065c7.97-10.655,18.711-16.808,30.537-21.833
		h18.234c16.159,5.416,22.742,18.151,27.336,33.526C1941.055,380.345,1949.285,464.55,1945.345,550.013z"/>
	<path fill-rule="evenodd" clip-rule="evenodd" fill="#9D967F" d="M2094.998,756.672c-0.867,63.329-21.74,121.372-52.542,176.125
		c-29.021,51.5-65.749,97.675-100.188,145.454c-52.585,72.897-102.917,147.405-155.806,220.13
		c-52.54,72.208-103.915,145.239-153.382,219.612c-66.229,99.54-121.285,204.581-161.482,317.286
		c-6.539,18.282-14.729,35.951-22.178,53.887c-0.778,1.862-1.862,3.549-3.162,6.063c-11.693-15.897-22.525-31.186-33.961-46.001
		c-27.85-36.127-58.777-69.564-89.098-103.568c-33.962-38.116-66.967-76.973-94.775-119.983
		c-37.427-57.916-56.962-122.283-70.433-189.03c-6.585-32.53-10.267-65.493-10.182-98.542c0.134-88.67,25.948-169.063,80.006-239.93
		c32.315-42.362,71.993-77.274,112.406-111.364c64.888-54.707,127.263-111.972,181.709-177.334
		c31.882-38.249,58.088-80.047,75.674-126.916c0.087-0.304,0.171-0.606,0.262-0.867c11-27.851,27.938-40.021,52.407-37.554
		c29.455,2.947,49.773,21.875,54.841,49.943c8.185,45.31-1.993,87.283-21.485,127.868c-23.392,48.557-55.879,91.008-88.581,133.329
		c-28.804,37.252-56.396,75.368-80.913,115.651c-3.594,5.935-7.018,12.084-9.963,18.365c-15.639,33.096,10.568,60.21,38.334,61.514
		c27.072,1.253,51.675-6.372,74.33-20.491c44.789-27.938,84.684-62.029,122.799-98.373
		c68.484-65.189,125.187-139.647,173.828-220.39c22.351-37.12,34.219-78.183,41.495-120.677
		c6.671-38.983,8.101-78.402,11.48-117.732c3.333-39.634,6.629-79.226,5.11-119.075c-0.648-16.461-4.458-32.444-6.236-48.688
		c-2.553-22.696,0.865-44.833,9.791-65.883c6.887-16.244,19.924-24.732,37.123-27.246c16.805-2.426,29.844,3.942,37.463,19.536
		c11.309,23.088,16.244,48.21,21.791,73.03c10.739,48.384,16.067,97.505,18.667,146.973
		C2093.742,620.055,2095.954,688.364,2094.998,756.672z"/>
	<path fill-rule="evenodd" clip-rule="evenodd" fill="#9D967F" d="M985.897,1506.295c-21.138,75.068-61.986,138.57-111.668,197.304
		c-41.583,49.163-86.804,95.206-126.223,146.19c-11.263,14.6-21.873,29.676-33.656,45.743
		c-17.153-37.856-31.924-75.067-45.871-112.577c-30.019-80.695-71.603-155.289-117.258-227.928
		c-69.607-110.671-147.447-215.582-223.639-321.619c-41.973-58.477-81.303-118.816-124.575-176.384
		c-29.196-38.853-57.914-78.012-82.344-120.156c-39.2-67.573-59.084-139.781-55.229-218.357
		c1.905-39.113,1.257-78.356,2.642-117.515c2.861-81.088,9.184-161.742,32.313-240.143c2.384-8.142,4.81-16.33,8.232-24.083
		c13.168-29.627,50.116-33.831,70.343-8.143c11.219,14.25,13.427,31.404,16.244,48.557c3.292,20.314-1.733,39.893-4.419,59.646
		c-3.985,29.065-2.426,58.172-0.563,87.237c1.819,28.762,4.678,57.438,6.627,86.2c3.9,56.787,10.96,112.883,32.877,166.116
		c12.26,29.802,31.058,55.574,48.038,82.518c34.522,54.752,75.847,103.914,120.763,150.305
		c43.23,44.703,89.795,85.333,142.12,119.117c23.435,15.161,48.991,24.043,77.362,22.439c23.001-1.342,40.587-16.633,43.014-38.291
		c1.472-13.255-4.158-24.95-10.871-35.909c-17.675-28.762-36.17-56.917-56.268-84.032c-30.409-40.977-63.111-80.222-90.402-123.451
		C483,836.592,465.197,802.892,457.01,764.86c-5.196-24.042-5.589-48.168-0.951-72.293c6.583-34.265,39.198-55.188,73.158-46.87
		c13.689,3.335,22.698,12.735,28.503,24.993c6.715,14.252,12.215,29.11,19.017,43.317c27.245,56.917,67.051,104.52,110.498,149.571
		c50.724,52.541,105.952,100.058,161.395,147.447c48.082,41.105,90.919,86.804,120.417,143.634
		c22.915,44.184,36.905,90.876,41.497,140.476C1017.258,1367.299,1005.434,1437.077,985.897,1506.295z"/>
	<path fill-rule="evenodd" clip-rule="evenodd" fill="#DF5A27" d="M1454.316,724.315c-6.5,64.889-36.733,118.6-78.317,167.071
		c-35.214,41.063-73.938,78.792-112.359,116.821c-42.363,41.931-83.212,85.204-111.8,138.31
		c-23.217,43.188-34.912,89.011-32.358,138.175c0.348,6.11,0.521,12.086-4.068,18.325c-22.697-27.462-42.061-56.051-59.821-85.766
		c-33.7-56.441-63.458-114.702-78.487-179.241c-32.271-138.828,2.556-259.203,100.492-361.905
		c9.615-10.092,19.363-20.142,31.621-27.287c9.354-5.459,19.36-8.361,30.017-9.92c5.373-0.781,6.238,0.607,4.896,5.762
		c-3.119,11.911-10.61,20.963-18.063,30.189c-14.167,17.673-24.473,37.037-24.562,60.295c-0.086,27.811,23.782,45.31,50.291,37.209
		c34.134-10.396,57.654-48.774,52.629-84.076c-2.772-19.753-10.829-37.858-15.334-57.004
		c-17.975-75.89,6.976-136.532,65.798-185.089c8.837-7.276,17.803-14.51,28.542-20.488c2.86,12.65,0.608,24.127-2.854,35.39
		c-6.759,21.7-15.727,42.624-19.71,65.191c-9.054,50.938,1.643,96.465,36.514,135.404c10.959,12.216,24.431,19.491,41.41,13.991
		c18.54-5.977,30.191-18.842,34.263-37.945c4.331-20.271-1.948-38.333-12.863-55.141c-4.592-7.104-9.573-13.948-14.944-21.701
		c11.391-3.768,21.573-2.424,30.668,3.595C1434.564,603.423,1461.245,654.491,1454.316,724.315z"/>
	<path fill-rule="evenodd" clip-rule="evenodd" fill="#9D967F" d="M468.706,474.859c-0.997,22.654-8.794,49.207-15.854,75.848
		c-22.178,83.685-52.976,164.514-82.517,245.731c-8.012,21.959-15.722,44.007-23.563,66.011
		c-2.772,7.712-5.546,15.466-10.829,21.919c-5.806,7.147-12.129,7.321-16.979-0.389c-11.784-18.8-24.215-37.296-33.876-57.178
		c-6.584-13.47-6.021-29.498-7.969-44.528c-5.632-43.836,6.844-83.902,23.997-123.45c27.333-62.981,46.652-128.865,68.96-193.666
		c4.503-13.211,8.749-26.554,14.423-39.288c13.645-30.538,48.859-33.917,69.088-6.8
		C464.721,433.969,468.749,451.253,468.706,474.859z"/>
	<path fill-rule="evenodd" clip-rule="evenodd" fill="#9D967F" d="M1877.036,823.899c-2.341,10.569-10.529,19.059-16.07,28.457
		c-5.719,9.661-11.306,19.406-17.2,28.978c-6.755,10.961-13.426,11.002-20.699,0.521c-6.198-8.878-8.928-19.187-12.434-29.194
		c-24.78-70.388-51.852-139.954-75.283-210.817c-15.639-47.259-29.932-94.863-40.023-143.637
		c-1.907-9.225-3.596-18.496-3.076-26.377c-0.304-19.016,3.423-35.347,13.038-50.074c6.407-9.877,15.507-16.115,26.723-19.319
		c18.063-5.198,31.536,0.087,40.894,16.46c7.492,12.994,11.26,27.46,16.113,41.496c21.137,61.032,39.892,122.93,63.976,182.923
		c10.14,25.296,22.267,49.901,27.938,76.842C1888.296,755.115,1884.485,789.68,1877.036,823.899z"/>
</g>
</svg>
