<?xml version="1.0" encoding="utf-8"?>
<!-- Generator: Adobe Illustrator 16.0.0, SVG Export Plug-In . SVG Version: 6.00 Build 0)  -->
<!DOCTYPE svg PUBLIC "-//W3C//DTD SVG 1.1//EN" "http://www.w3.org/Graphics/SVG/1.1/DTD/svg11.dtd">
<svg version="1.1" id="Layer_1" xmlns="http://www.w3.org/2000/svg" xmlns:xlink="http://www.w3.org/1999/xlink" x="0px" y="0px"
	 width="2160px" height="1080px" viewBox="0 0 2160 1080" enable-background="new 0 0 2160 1080" xml:space="preserve">
<g>
	<path fill-rule="evenodd" clip-rule="evenodd" fill="#DF5B28" d="M2038.162,926.374v59.063c-4.794,0.058-9.587-0.058-14.343,0.213
		c-3.098,0.156-3.956-0.896-3.917-3.956c0.136-15.023,0.078-30.047,0.058-45.089c0-8.381-4.207-12.649-12.489-12.686
		c-2.457-0.021-4.911-0.04-7.366,0.018c-5.651,0.117-8.554,3.039-8.554,8.692c-0.039,16.27-0.078,32.521,0.039,48.793
		c0.019,3.078-0.644,4.54-4.054,4.228c-3.254-0.293-6.587-0.293-9.841,0c-3.683,0.313-4.948-0.78-4.891-4.695
		c0.234-15.434,0.098-30.885,0.098-46.34c0-7.248-3.45-10.659-10.776-10.695c-3.292-0.021-6.568-0.021-9.84,0
		c-5.204,0.018-6.14,0.953-6.14,6.293c-0.02,16.816-0.117,33.613,0.078,50.43c0.059,3.916-0.953,5.399-4.969,5.008
		c-3.526-0.331-7.112-0.155-10.659-0.038c-2.26,0.077-3.118-0.682-3.098-3.039c0.058-22.139,0-44.295,0.058-66.429
		c0.021-4.912,3.819-8.926,8.789-9.005c10.912-0.192,21.863-0.173,32.796-0.017c4.578,0.076,8.359,2.396,11.496,5.61
		c1.677,1.714,2.807,2.086,4.521-0.039c2.882-3.605,6.898-5.36,11.457-5.495c5.594-0.175,11.242-0.545,16.778,0.02
		c10.718,1.111,18.492,6.779,23.229,16.523C2037.051,924.638,2036.875,925.966,2038.162,926.374z"/>
	<path fill-rule="evenodd" clip-rule="evenodd" fill="#DF5B28" d="M148.984,969.869c-0.234,4.228-0.138,8.474-0.021,12.704
		c0.078,2.319-0.798,3.059-3.098,3.059c-12.841-0.099-25.683,0.175-38.524-0.137c-15.375-0.351-26.794-9.334-31.47-24.144
		c-0.234-0.739-0.078-1.656-0.917-2.163v-54.971c1.773-6.313,4.093-12.238,9.021-16.991c6.412-6.177,13.895-9.569,22.742-9.665
		c12.841-0.137,25.682,0.038,38.524-0.077c2.786-0.041,3.897,0.739,3.742,3.68c-0.216,4.23-0.195,8.478,0,12.686
		c0.135,2.809-0.995,3.488-3.566,3.469c-10.796-0.076-21.591-0.036-32.367-0.036c-9.997,0.018-15.492,4.617-15.823,14.651
		c-0.468,14.344-0.351,28.684-0.099,43.027c0.118,6.489,5.282,10.755,12.063,10.776c11.886,0.058,23.772,0.135,35.659-0.06
		C148.166,965.62,149.159,966.671,148.984,969.869z"/>
	<g>
		<path fill-rule="evenodd" clip-rule="evenodd" fill="#9D967F" d="M719.075,137.667c-4.034,19.35-7.385,38.835-11.691,58.108
			c-5.457,24.455-15.688,47.041-28.372,68.553c-0.137,0.214-0.41,0.331-0.975,0.759c-1.734-5.125-2.319-10.367-3.254-15.472
			c-5.593-30.729-7.971-61.713-6.528-92.91c1.248-27.378,5.982-54.172,14.128-80.361c1.714-5.554,5.533-8.828,10.327-11.38h9.022
			c15.823,6.43,21.396,19.623,22.935,35.25C725.953,113.114,721.647,125.272,719.075,137.667z"/>
		<path fill-rule="evenodd" clip-rule="evenodd" fill="#9D967F" d="M1446.46,193.417c-1.072,23.208-4.326,46.183-8.984,68.943
			c-0.175,0.857-0.194,1.852-1.324,2.63c-6.313-10.27-11.573-21.006-16.485-31.958c-9.394-20.987-14.206-43.221-18.084-65.708
			c-2.805-16.271-6.858-32.27-10.21-48.423c-3.234-15.628-2.163-30.691,7.911-44.116c3.586-4.794,8.418-7.562,13.738-9.822h8.203
			c7.269,2.436,10.23,8.165,12.297,15.082C1444.53,117.089,1448.233,154.97,1446.46,193.417z"/>
		<path fill-rule="evenodd" clip-rule="evenodd" fill="#9D967F" d="M1513.784,286.386c-0.391,28.489-9.78,54.601-23.637,79.232
			c-13.057,23.168-29.578,43.941-45.071,65.435c-23.656,32.794-46.299,66.312-70.092,99.029
			c-23.636,32.483-46.748,65.337-69.001,98.795c-29.795,44.779-54.563,92.034-72.646,142.736
			c-2.941,8.225-6.626,16.173-9.977,24.241c-0.351,0.838-0.838,1.597-1.423,2.728c-5.261-7.151-10.133-14.029-15.277-20.693
			c-12.529-16.253-26.442-31.295-40.083-46.593c-15.277-17.147-30.126-34.627-42.636-53.976
			c-16.837-26.055-25.626-55.012-31.686-85.039c-2.962-14.634-4.618-29.463-4.579-44.33c0.059-39.889,11.673-76.056,35.991-107.936
			c14.537-19.058,32.388-34.763,50.567-50.099c29.19-24.611,57.251-50.373,81.745-79.777c14.343-17.207,26.131-36.011,34.042-57.095
			c0.04-0.137,0.077-0.273,0.118-0.39c4.949-12.529,12.568-18.004,23.576-16.894c13.251,1.325,22.392,9.84,24.671,22.467
			c3.683,20.383-0.896,39.266-9.665,57.523c-10.523,21.844-25.139,40.941-39.85,59.98c-12.958,16.758-25.37,33.906-36.4,52.027
			c-1.617,2.669-3.156,5.437-4.481,8.263c-7.035,14.888,4.754,27.086,17.245,27.671c12.178,0.564,23.246-2.865,33.438-9.217
			c20.148-12.568,38.096-27.904,55.243-44.254c30.809-29.327,56.316-62.823,78.198-99.146
			c10.056-16.699,15.395-35.172,18.668-54.289c3.001-17.538,3.644-35.271,5.165-52.964c1.499-17.83,2.981-35.641,2.299-53.568
			c-0.292-7.405-2.006-14.595-2.806-21.903c-1.148-10.21,0.389-20.168,4.404-29.639c3.098-7.308,8.963-11.126,16.7-12.257
			c7.56-1.091,13.426,1.773,16.854,8.789c5.087,10.386,7.308,21.688,9.803,32.854c4.832,21.766,7.229,43.864,8.397,66.118
			C1513.219,224.926,1514.214,255.656,1513.784,286.386z"/>
		<path fill-rule="evenodd" clip-rule="evenodd" fill="#9D967F" d="M1014.838,623.615c-9.509,33.77-27.885,62.338-50.235,88.759
			c-18.707,22.117-39.05,42.83-56.783,65.767c-5.066,6.568-9.84,13.35-15.141,20.578c-7.716-17.03-14.361-33.77-20.635-50.645
			c-13.504-36.303-32.211-69.858-52.75-102.536c-31.314-49.788-66.331-96.983-100.607-144.686
			c-18.883-26.307-36.576-53.452-56.042-79.349c-13.134-17.479-26.053-35.094-37.044-54.054
			c-17.634-30.399-26.58-62.883-24.845-98.231c0.857-17.596,0.565-35.25,1.188-52.866c1.287-36.479,4.132-72.761,14.537-108.032
			c1.073-3.663,2.164-7.346,3.704-10.834c5.924-13.329,22.545-15.219,31.645-3.664c5.047,6.411,6.041,14.128,7.308,21.844
			c1.481,9.139-0.78,17.947-1.988,26.833c-1.792,13.075-1.092,26.17-0.253,39.245c0.818,12.938,2.105,25.839,2.981,38.778
			c1.755,25.546,4.931,50.782,14.791,74.729c5.516,13.407,13.972,25.001,21.611,37.122c15.53,24.631,34.121,46.747,54.327,67.617
			c19.447,20.11,40.395,38.388,63.935,53.587c10.542,6.82,22.039,10.815,34.802,10.095c10.348-0.604,18.259-7.483,19.351-17.226
			c0.662-5.962-1.871-11.224-4.891-16.154c-7.951-12.939-16.272-25.605-25.313-37.803c-13.68-18.434-28.392-36.089-40.668-55.536
			c-9.217-14.615-17.226-29.775-20.909-46.884c-2.337-10.815-2.514-21.669-0.428-32.522c2.961-15.414,17.634-24.826,32.911-21.085
			c6.158,1.5,10.211,5.729,12.822,11.244c3.021,6.412,5.495,13.096,8.555,19.487c12.257,25.604,30.165,47.02,49.709,67.287
			c22.819,23.636,47.664,45.012,72.606,66.332c21.63,18.492,40.901,39.05,54.171,64.615c10.309,19.877,16.603,40.883,18.668,63.195
			C1028.946,561.085,1023.627,592.476,1014.838,623.615z"/>
		<path fill-rule="evenodd" clip-rule="evenodd" fill="#DF5A27" d="M1225.563,271.829c-2.924,29.191-16.524,53.354-35.231,75.159
			c-15.843,18.473-33.263,35.446-50.548,52.554c-19.058,18.863-37.433,38.33-50.294,62.22
			c-10.445,19.428-15.706,40.043-14.557,62.161c0.156,2.748,0.234,5.437-1.831,8.243c-10.21-12.354-18.921-25.215-26.911-38.582
			c-15.16-25.391-28.547-51.6-35.309-80.635c-14.517-62.454,1.15-116.606,45.208-162.808c4.326-4.541,8.711-9.062,14.226-12.276
			c4.208-2.456,8.709-3.761,13.503-4.463c2.417-0.351,2.806,0.273,2.202,2.592c-1.402,5.358-4.773,9.431-8.126,13.581
			c-6.373,7.951-11.009,16.662-11.049,27.125c-0.039,12.511,10.698,20.383,22.624,16.739c15.355-4.676,25.936-21.942,23.676-37.823
			c-1.247-8.886-4.871-17.031-6.897-25.645c-8.087-34.141,3.137-61.421,29.6-83.265c3.976-3.273,8.009-6.527,12.84-9.217
			c1.287,5.691,0.273,10.854-1.284,15.92c-3.04,9.763-7.075,19.175-8.867,29.327c-4.072,22.916,0.739,43.396,16.427,60.914
			c4.93,5.496,10.99,8.769,18.629,6.294c8.34-2.688,13.582-8.476,15.414-17.07c1.947-9.119-0.877-17.245-5.787-24.806
			c-2.065-3.196-4.307-6.275-6.723-9.763c5.124-1.695,9.704-1.09,13.796,1.618C1216.678,217.443,1228.681,240.418,1225.563,271.829z
			"/>
		<path fill-rule="evenodd" clip-rule="evenodd" fill="#9D967F" d="M782.172,159.607c-0.448,10.191-3.956,22.137-7.132,34.121
			c-9.977,37.647-23.832,74.009-37.122,110.546c-3.604,9.879-7.073,19.797-10.6,29.696c-1.247,3.47-2.495,6.958-4.872,9.861
			c-2.612,3.215-5.457,3.293-7.638-0.175c-5.3-8.458-10.894-16.778-15.239-25.723c-2.962-6.06-2.708-13.27-3.585-20.031
			c-2.534-19.72,3.079-37.745,10.795-55.536c12.296-28.333,20.987-57.972,31.022-87.124c2.026-5.943,3.936-11.946,6.489-17.674
			c6.138-13.738,21.98-15.258,31.081-3.059C780.379,141.212,782.191,148.988,782.172,159.607z"/>
		<path fill-rule="evenodd" clip-rule="evenodd" fill="#9D967F" d="M1415.73,316.628c-1.053,4.754-4.736,8.574-7.229,12.802
			c-2.572,4.346-5.086,8.73-7.737,13.036c-3.039,4.931-6.04,4.949-9.313,0.234c-2.788-3.994-4.016-8.631-5.593-13.133
			c-11.148-31.665-23.326-62.96-33.867-94.839c-7.035-21.26-13.466-42.676-18.006-64.617c-0.857-4.15-1.617-8.321-1.384-11.866
			c-0.137-8.555,1.54-15.901,5.865-22.527c2.883-4.443,6.976-7.249,12.022-8.691c8.126-2.338,14.187,0.039,18.396,7.405
			c3.37,5.846,5.064,12.354,7.248,18.667c9.51,27.457,17.946,55.302,28.78,82.291c4.562,11.38,10.017,22.449,12.569,34.568
			C1420.796,285.685,1419.082,301.234,1415.73,316.628z"/>
	</g>
	<path fill-rule="evenodd" clip-rule="evenodd" fill="#DF5B28" d="M480.777,980.955c0.058,3.896-1.189,5.027-4.872,4.695
		c-3.118-0.293-6.314-0.271-9.432,0c-3.332,0.274-4.423-0.72-4.384-4.246c0.215-14.908,0.098-29.795,0.098-44.703
		c-0.02-8.651-4.15-12.764-12.822-12.781c-15.122-0.04-15.745,0.603-15.745,15.607c0,14.067-0.097,28.157,0.059,42.246
		c0.039,3.078-0.838,4.094-3.917,3.877c-3.527-0.252-7.113-0.271-10.64,0c-3.098,0.217-3.936-0.818-3.916-3.896
		c0.155-15.59,0.077-31.18,0.077-46.748c0-7.563-3.468-11.051-10.951-11.087c-3.41-0.021-6.84-0.021-10.25,0
		c-4.54,0.036-5.708,1.205-5.729,5.885c-0.019,16.953-0.117,33.906,0.078,50.838c0.058,3.938-0.994,5.419-4.988,5.008
		c-2.963-0.312-6.021-0.271-9.003-0.019c-3.663,0.331-5.046-0.721-4.93-4.696c0.292-10.524,0.097-21.065,0.097-31.588
		c0-10.521-0.019-21.044,0.02-31.588c0.019-6.938,3.702-10.658,10.562-10.697c9.295-0.019,18.589,0.156,27.885-0.06
		c5.846-0.135,10.756,1.579,14.732,5.79c1.676,1.771,2.903,1.947,4.579-0.099c2.826-3.411,6.605-5.319,11.049-5.438
		c5.865-0.155,11.77-0.331,17.616,0c11.34,0.663,25.234,11.596,24.728,27.339C480.309,950.03,480.543,965.502,480.777,980.955z"/>
	<path fill-rule="evenodd" clip-rule="evenodd" fill="#DF5B28" d="M357.936,981.423c0.039,3.136-0.663,4.521-4.034,4.228
		c-3.273-0.271-6.586-0.271-9.84,0c-3.644,0.293-4.969-0.758-4.911-4.733c0.253-15.023,0.117-30.068,0.097-45.111
		c0-7.601-4.268-11.83-11.906-11.886c-2.319-0.021-4.638-0.021-6.977,0c-6.45,0.036-9.256,2.805-9.256,9.178
		c-0.019,15.977-0.097,31.975,0.078,47.975c0.039,3.623-1.052,4.891-4.657,4.578c-3.255-0.293-6.567-0.271-9.841,0
		c-3.351,0.255-4.442-0.818-4.403-4.307c0.175-15.724,0.078-31.448,0.078-47.175c0-6.705-3.527-10.193-10.387-10.249
		c-3.41-0.021-6.82,0-10.25,0c-4.911,0.018-6.274,1.323-6.274,6.312c-0.039,16.816-0.156,33.636,0.078,50.431
		c0.058,3.896-0.857,5.457-4.892,4.988c-2.981-0.331-6.041-0.293-9.022,0c-3.488,0.332-4.715-0.643-4.619-4.424
		c0.292-10.796,0.098-21.589,0.098-32.385c0-10.679-0.02-21.337,0.02-31.999c0.02-6.021,3.566-9.703,9.606-9.761
		c10.27-0.099,20.519,0,30.769-0.02c5.125-0.019,9.236,2.281,12.705,5.75c1.773,1.752,2.903,1.87,4.501-0.137
		c2.787-3.526,6.625-5.301,11.049-5.438c5.865-0.176,11.77-0.37,17.596,0.041c12.14,0.815,25.313,12.685,24.67,27.396
		C357.351,950.227,357.779,965.833,357.936,981.423z"/>
	<path fill-rule="evenodd" clip-rule="evenodd" fill="#DF5B28" d="M935.49,897.357c-13.524-0.176-27.047-0.075-40.571-0.058
		c-7.892,0-9.509,1.637-9.548,9.667c0,3.681,0.136,7.385-0.039,11.048c-0.136,2.708,0.857,3.508,3.527,3.488
		c13.797-0.118,27.593,0.058,41.389-0.118c3.352-0.038,4.677,0.8,4.423,4.308c-0.292,3.8-0.292,7.657,0,11.458
		c0.253,3.411-1.11,4.091-4.229,4.071c-13.523-0.175-27.066,0.058-40.59-0.156c-3.663-0.058-4.617,1.014-4.559,4.6
		c0.213,12.022-0.019,24.048,0.156,36.07c0.039,3.116-0.975,4.053-3.995,3.915c-4.773-0.232-9.587-0.252-14.342,0
		c-3.196,0.176-3.858-1.032-3.819-3.994c0.136-14.205,0.059-28.409,0.059-42.616v-40.181c0-13.232,7.248-21.027,20.538-21.26
		c17.479-0.29,34.959-0.038,52.458-0.115c2.553,0,3.312,0.953,3.215,3.388c-0.156,4.093-0.234,8.205,0.02,12.298
		C939.777,896.365,938.803,897.397,935.49,897.357z"/>
	<path fill-rule="evenodd" clip-rule="evenodd" fill="#DF5B28" d="M1836.751,935.295c-0.603-14.762-8.63-24.079-23.194-27.041
		c-9.366-1.931-18.695-1.695-27.951,0.799c-13.176,3.565-21.289,12.182-24.754,25.26c-1.869,7.067-2.065,14.294-1.144,21.522
		c2.249,17.575,9.096,25.197,26.475,28.393c14.051,2.568,28.333,1.032,42.518,1.352c2.027,0.05,2.053-1.289,2.053-2.729
		c-0.025-4.252-0.16-8.479,0.035-12.71c0.112-2.628-1.032-3.354-3.392-3.219c-2.027,0.122-4.093,0.024-6.134,0.024
		c-9.439,0-18.867,0.137-28.282-0.036c-5.961-0.123-11.394-1.659-14.245-7.721c-1.241-2.691-0.664-4.055,2.63-3.995
		c8.617,0.125,17.233,0.039,25.825,0.039c8.75,0,17.502-0.063,26.229,0.035c2.396,0.024,3.49-0.54,3.404-3.171
		C1836.676,946.479,1836.983,940.876,1836.751,935.295z M1819.543,935.7c-0.013,0.122-0.037,0.247-0.075,0.357
		c-0.035,0.11-0.072,0.209-0.122,0.308c-0.086,0.197-0.209,0.355-0.382,0.49c-0.061,0.05-0.122,0.098-0.209,0.148
		c-0.085,0.06-0.184,0.099-0.281,0.146c-0.075,0.051-0.148,0.074-0.234,0.086c-0.073,0.039-0.16,0.051-0.258,0.075
		c-0.172,0.048-0.369,0.074-0.578,0.098c0,0,0,0-0.012,0c-0.258,0.036-0.529,0.036-0.823,0.036
		c-1.487-0.023-2.987-0.036-4.487-0.048c-1.499-0.012-2.998-0.012-4.498-0.012c-2.999,0-5.998,0.012-8.984,0.012
		c-1.279,0-2.545,0.012-3.823,0.012c-1.524,0.013-3.048,0.013-4.572,0.013c-1.267,0-2.545,0-3.812-0.013
		c-1.522,0.013-3.035,0-4.56-0.012c-0.811,0-1.474-0.074-2.016-0.196c-0.185-0.051-0.345-0.099-0.492-0.149
		c-0.146-0.048-0.282-0.122-0.393-0.183c-0.061-0.038-0.11-0.063-0.147-0.098c-0.012,0.012-0.012,0-0.025-0.015
		c-0.035-0.013-0.061-0.036-0.085-0.072c-0.012,0.012-0.012,0-0.025-0.024c-0.012,0.013-0.012,0.013-0.012,0
		c-0.087-0.074-0.147-0.148-0.209-0.223c-0.049-0.072-0.099-0.146-0.147-0.233c-0.037-0.086-0.073-0.185-0.099-0.271
		c-0.024-0.061-0.037-0.111-0.037-0.171c-0.012-0.051-0.012-0.11-0.012-0.161c-0.05-0.713,0.283-1.671,0.971-2.899
		c0.147-0.271,0.308-0.528,0.48-0.775c0.036-0.048,0.061-0.087,0.085-0.123c0.173-0.232,0.356-0.453,0.554-0.674
		c0.147-0.197,0.319-0.395,0.516-0.567c0.197-0.208,0.406-0.417,0.627-0.603c0.258-0.232,0.529-0.453,0.812-0.65
		c0.405-0.295,0.835-0.566,1.278-0.823c0.209-0.137,0.431-0.259,0.651-0.37c0.209-0.134,0.43-0.244,0.639-0.354
		c0.431-0.224,0.86-0.444,1.304-0.653c0.86-0.418,1.733-0.8,2.605-1.154c1.057-0.418,2.114-0.775,3.172-1.083
		c0.258-0.084,0.528-0.158,0.798-0.209c0.087-0.036,0.185-0.06,0.271-0.072c0.713-0.185,1.413-0.333,2.127-0.468
		c0.356-0.074,0.725-0.123,1.081-0.173c0.172-0.036,0.345-0.048,0.528-0.061c0.356-0.063,0.726-0.098,1.095-0.122
		c0.307-0.026,0.614-0.051,0.922-0.063c0.232-0.023,0.479-0.036,0.713-0.036c0.308-0.012,0.627-0.026,0.934-0.026
		c0.087-0.012,0.172-0.012,0.258,0c0.406,0,0.812,0.015,1.229,0.026h0.013c0.368,0.013,0.75,0.036,1.13,0.072
		c0.972,0.074,1.931,0.197,2.913,0.37c0.824,0.134,1.635,0.319,2.459,0.527c0.185,0.039,0.368,0.087,0.565,0.149
		c0.812,0.209,1.622,0.466,2.446,0.749c0.356,0.122,0.7,0.257,1.032,0.394c0.074,0.024,0.159,0.06,0.233,0.099
		c0.308,0.134,0.602,0.269,0.896,0.417c0.296,0.146,0.578,0.308,0.85,0.479c0.085,0.05,0.171,0.098,0.258,0.16
		c0.295,0.186,0.577,0.382,0.86,0.591c0.271,0.209,0.528,0.43,0.786,0.663c0.271,0.247,0.528,0.504,0.774,0.775
		c0.234,0.283,0.467,0.563,0.676,0.871c0.099,0.137,0.196,0.283,0.283,0.418c0.135,0.209,0.258,0.432,0.368,0.652
		c0.099,0.171,0.197,0.355,0.283,0.54c0.222,0.48,0.418,0.997,0.578,1.549c0.085,0.26,0.159,0.528,0.221,0.812
		c0.025,0.122,0.049,0.247,0.061,0.37c0.063,0.244,0.087,0.465,0.087,0.674C1819.579,935.259,1819.566,935.491,1819.543,935.7z"/>
	<path fill-rule="evenodd" clip-rule="evenodd" fill="#DF5B28" d="M1915.784,941.539c0.023-4.929,0.086-9.846-0.737-14.712
		c-1.869-11.369-8.862-19.397-18.277-19.642c-14.479-0.394-28.972-0.099-43.475-0.137c-1.931-0.024-2.692,0.713-2.655,2.643
		c0.086,3.837,0.282,7.683-0.049,11.48c-0.332,3.762,1.13,4.537,4.633,4.463c11.751-0.222,23.526,0,35.265-0.111
		c3.713-0.05,5.74,1.806,6.403,5.063c0.75,3.565-1.426,5.569-4.522,6.799c-1.722,0.662-3.49,0.588-5.261,0.6
		c-7.388,0.026-14.774,0.197-22.137-0.06c-6.589-0.233-11.038,2.852-13.938,8.284c-5.519,10.325-5.557,20.943-0.664,31.514
		c2.52,5.409,6.724,8.198,13.054,7.941c7.779-0.331,15.573-0.074,23.366-0.074c8.21,0,16.408-0.135,24.619,0.063
		c3.331,0.074,4.512-0.823,4.462-4.353C1915.674,968.052,1915.784,954.79,1915.784,941.539z M1897.077,962.312
		c-0.014,0.579-0.038,1.106-0.075,1.572c-0.012,0.161-0.023,0.308-0.036,0.444c-0.024,0.295-0.074,0.552-0.123,0.797
		c-0.024,0.113-0.05,0.235-0.087,0.346c-0.023,0.11-0.049,0.209-0.097,0.308c-0.037,0.11-0.074,0.221-0.136,0.319
		c-0.037,0.086-0.087,0.173-0.136,0.245c-0.295,0.491-0.737,0.811-1.363,1.02c-0.112,0.039-0.223,0.074-0.345,0.099
		c-0.124,0.038-0.258,0.063-0.394,0.087c-0.319,0.062-0.676,0.11-1.069,0.134c-0.222,0.026-0.455,0.026-0.688,0.039
		c-0.246,0.012-0.492,0.023-0.762,0.023c-0.209,0.012-0.418,0.012-0.639,0.012c-0.664,0.013-1.402,0.013-2.226,0.013h-6.539
		c-1.314,0-2.643,0-3.958,0.012c-2.642,0.026-5.285,0.038-7.902-0.036c-0.246-0.012-0.48-0.023-0.713-0.063
		c-0.222-0.023-0.432-0.06-0.641-0.099c-0.085-0.012-0.159-0.035-0.244-0.048c-0.296-0.074-0.591-0.146-0.861-0.259
		c-0.135-0.048-0.283-0.11-0.417-0.171c-0.565-0.247-1.069-0.566-1.501-0.96c-0.073-0.061-0.147-0.122-0.209-0.197
		c-0.073-0.071-0.147-0.134-0.208-0.221c-0.086-0.086-0.172-0.183-0.246-0.295c-0.036-0.036-0.073-0.072-0.099-0.123
		c-0.123-0.146-0.221-0.295-0.308-0.453c-0.024-0.051-0.062-0.099-0.073-0.149c-0.073-0.122-0.136-0.257-0.196-0.391
		c-0.123-0.26-0.233-0.543-0.308-0.826c-0.05-0.194-0.099-0.392-0.135-0.6c-0.099-0.517-0.123-1.06-0.099-1.623
		c0.172-3.479,2.299-5.322,6.33-5.335c3.934-0.026,7.842,0.024,11.763,0.024c1.818,0,3.626,0,5.433-0.024
		c0.935,0,1.856-0.012,2.777-0.038c0.824,0,1.647-0.012,2.471-0.036c0.161-0.012,0.308-0.023,0.48-0.023
		c0.098,0,0.209,0,0.307,0.012c0.172,0,0.332,0,0.479,0.012c0.159,0,0.295,0.013,0.431,0.036c0.282,0.038,0.528,0.087,0.737,0.161
		c0.11,0.036,0.209,0.074,0.307,0.122c0.073,0.024,0.148,0.074,0.209,0.11c0.209,0.123,0.382,0.271,0.517,0.456
		c0.086,0.11,0.159,0.233,0.233,0.367c0.062,0.123,0.111,0.26,0.16,0.395c0.062,0.208,0.11,0.441,0.147,0.688
		c0.036,0.245,0.062,0.528,0.062,0.823c0.012,0.186,0.012,0.394,0.012,0.603C1897.089,960.641,1897.089,961.524,1897.077,962.312z"
		/>
	<path fill-rule="evenodd" clip-rule="evenodd" fill="#DF5B28" d="M1501.736,933.328c0-5.826-1.167-11.394-4.104-16.482
		c-3.294-5.689-8.051-9.55-14.738-9.66c-14.466-0.283-28.97-0.087-43.449-0.137c-2.237-0.024-2.729,1.008-2.667,3.013
		c0.11,3.821,0.27,7.682-0.037,11.479c-0.271,3.368,0.971,4.129,4.167,4.094c12.021-0.173,24.042-0.036,36.087-0.099
		c3.504-0.013,5.298,1.855,5.986,4.991c0.7,3.171-0.995,5.185-3.688,6.524c-1.905,0.973-3.97,0.934-6.023,0.934
		c-7.793,0-15.56,0.039-23.365,0c-3.773-0.035-6.859,1.292-9.526,3.959c-9.182,9.23-9.821,30.054-1.168,39.813
		c2.459,2.766,5.458,3.872,9.097,3.858c8.186-0.085,16.396-0.024,24.595-0.024c8.346,0,16.68-0.135,25.025,0.063
		c3.072,0.074,3.934-0.898,3.896-3.935C1501.688,965.581,1501.786,949.441,1501.736,933.328z M1474.967,967.769
		c-3.922,0-7.843,0.023-11.764,0.023c-1.954,0-3.921-0.012-5.875-0.023c-0.282,0-0.554-0.013-0.823-0.048
		c-0.259-0.013-0.517-0.039-0.763-0.087c-0.232-0.024-0.455-0.074-0.676-0.122c-0.479-0.099-0.934-0.248-1.34-0.418
		c-0.159-0.074-0.319-0.148-0.467-0.235c-0.074-0.024-0.136-0.06-0.196-0.11c-0.087-0.036-0.16-0.087-0.246-0.146
		c-0.013,0-0.024-0.012-0.037-0.024c-0.135-0.074-0.259-0.173-0.369-0.271c-0.232-0.173-0.455-0.382-0.639-0.591
		c-0.246-0.295-0.467-0.603-0.651-0.946c-0.283-0.527-0.479-1.106-0.591-1.745c-0.036-0.209-0.061-0.43-0.085-0.639
		c-0.012-0.209-0.025-0.417-0.025-0.641v-0.233c0-0.465,0.05-0.897,0.124-1.303c0.023-0.159,0.061-0.319,0.11-0.466
		c0.023-0.099,0.062-0.197,0.086-0.296c0.024-0.074,0.05-0.16,0.085-0.232c0.038-0.087,0.075-0.161,0.111-0.247
		c0-0.024,0.013-0.036,0.024-0.061c0.05-0.11,0.11-0.221,0.172-0.333c0.074-0.135,0.16-0.27,0.259-0.392
		c0.061-0.074,0.109-0.149,0.172-0.224c0.024-0.036,0.05-0.06,0.086-0.096c0.074-0.087,0.147-0.161,0.222-0.235
		c0.085-0.087,0.172-0.171,0.271-0.245c0.098-0.086,0.196-0.16,0.307-0.232c0.087-0.063,0.172-0.125,0.271-0.186
		c0.11-0.074,0.234-0.137,0.356-0.196c0.123-0.063,0.246-0.122,0.368-0.173c0.124-0.048,0.259-0.11,0.406-0.158
		c0.971-0.346,2.139-0.517,3.504-0.517c3.552-0.026,7.104-0.015,10.656,0c2.299,0,4.597,0.036,6.895,0.036
		c0.823,0,1.635-0.012,2.458-0.024c0.849-0.012,1.697-0.038,2.545-0.074c2.041-0.086,2.864,0.517,3.147,1.99
		c0.036,0.161,0.062,0.334,0.073,0.517c0.012,0.063,0.012,0.112,0.012,0.173c0.012,0.098,0.025,0.196,0.025,0.307
		s0.012,0.221,0.012,0.332C1483.362,967.769,1483.447,967.769,1474.967,967.769z"/>
	<path fill-rule="evenodd" clip-rule="evenodd" fill="#DF5B28" d="M235.837,926.876c-0.553-11.099-10.055-19.481-21.399-19.753
		c-11.063-0.257-22.161-0.296-33.199,0.012c-11.64,0.334-21.129,8.888-21.658,20.072c-0.541,12.008-0.639,24.066,0.123,36.051
		c0.91,14.713,9.723,22.272,24.411,22.321c4.364,0.012,8.751,0.012,13.115,0.012v-0.171c5.888,0,11.775,0.233,17.638-0.063
		c11.788-0.566,18.179-5.999,20.17-17.613C237.337,954.2,236.513,940.482,235.837,926.876z M214.695,963.701
		c-0.368,0.355-0.774,0.675-1.204,0.971c-0.062,0.035-0.111,0.074-0.16,0.098c-0.406,0.257-0.836,0.492-1.303,0.689
		c-0.11,0.048-0.221,0.099-0.332,0.146c-0.43,0.161-0.873,0.319-1.352,0.441c-0.196,0.063-0.393,0.113-0.59,0.149
		c-0.43,0.11-0.873,0.185-1.339,0.257c-0.062,0.014-0.135,0.026-0.197,0.038c-0.061,0.012-0.135,0.012-0.196,0.024
		c-4.081,0.527-8.198,0.736-12.316,0.662c-0.504,0-1.008-0.012-1.512-0.036c-0.344-0.012-0.701-0.023-1.045-0.036
		c0,0-0.013,0-0.024-0.012c-0.099,0-0.209,0-0.307-0.012c-0.541-0.015-1.082-0.051-1.623-0.087c-0.726-0.05-1.463-0.11-2.188-0.173
		c-1.008-0.074-2.016-0.185-3.024-0.307c-0.713-0.087-1.364-0.222-1.979-0.395c-0.922-0.257-1.733-0.626-2.458-1.106
		c-0.012,0-0.012,0-0.012,0c-0.479-0.308-0.922-0.662-1.315-1.057c-0.394-0.405-0.75-0.835-1.045-1.315
		c-0.319-0.466-0.578-0.981-0.799-1.536c-0.344-0.835-0.578-1.745-0.713-2.728c-0.085-0.665-0.135-1.354-0.147-2.078
		c-0.024-3.551,0-7.104,0-10.645c0-3.822,0.074-7.645-0.024-11.469c-0.062-2.407,0.603-4.386,1.917-5.752
		c0.123-0.146,0.283-0.295,0.43-0.417c0.615-0.528,1.339-0.946,2.176-1.229c0.417-0.135,0.86-0.257,1.328-0.331
		c9.304-1.572,18.744-1.745,28.012,0.185c4.585,0.958,6.207,3.896,6.207,8.774c0.013,6.552,0.013,13.103,0.013,19.654
		C217.56,958.907,216.675,961.771,214.695,963.701z"/>
	<path fill-rule="evenodd" clip-rule="evenodd" fill="#DF5B28" d="M1340.118,927.403c-0.518-11.554-10.153-20.084-21.756-20.305
		c-10.939-0.196-21.866-0.209-32.807,0.024c-11.468,0.232-21.239,8.923-21.742,19.974c-0.529,12.008-0.64,24.078,0.073,36.051
		c0.922,14.958,9.648,22.407,24.73,22.443h12.709v-0.158c5.888,0,11.763,0.221,17.613-0.051
		c11.923-0.552,18.413-6.122,20.367-17.909C1341.531,954.2,1340.745,940.751,1340.118,927.403z M1321.815,942.165
		c0.012,2.667,0.012,5.335,0,8.016c0,1.597-0.012,3.208-0.012,4.818c0,0.848-0.049,1.647-0.136,2.408
		c-0.036,0.382-0.099,0.749-0.172,1.106c-0.136,0.713-0.319,1.376-0.553,2.002c-0.11,0.296-0.233,0.579-0.369,0.851
		c-0.099,0.221-0.209,0.43-0.345,0.626c-0.061,0.135-0.147,0.257-0.232,0.382c-0.136,0.221-0.283,0.418-0.443,0.614
		c-0.171,0.221-0.368,0.442-0.564,0.639c-0.05,0.048-0.111,0.099-0.16,0.146c-0.172,0.173-0.345,0.331-0.528,0.469
		c-0.024,0.023-0.063,0.048-0.099,0.074c-0.233,0.194-0.479,0.367-0.737,0.528c-1.094,0.674-2.409,1.179-3.946,1.474
		c-0.393,0.074-0.786,0.148-1.203,0.197c-3.664,0.453-7.352,0.688-11.039,0.688c-0.945,0-1.904-0.012-2.852-0.051
		c-0.859-0.023-1.72-0.06-2.581-0.122c-0.171,0-0.344-0.012-0.516-0.036c-0.873-0.05-1.745-0.125-2.618-0.209
		c-0.947-0.098-1.893-0.209-2.84-0.333c-0.823-0.11-1.586-0.293-2.285-0.541c-0.345-0.11-0.676-0.244-0.996-0.417
		c-0.148-0.063-0.282-0.135-0.418-0.221c-0.172-0.087-0.332-0.186-0.491-0.296c-0.173-0.11-0.333-0.232-0.492-0.355
		c-0.062-0.038-0.11-0.074-0.172-0.137c0,0,0,0.013-0.013,0c-0.209-0.17-0.406-0.355-0.59-0.54
		c-0.159-0.148-0.295-0.295-0.418-0.456c-0.109-0.122-0.208-0.245-0.295-0.367c-0.061-0.074-0.11-0.148-0.159-0.221
		c-0.099-0.137-0.197-0.283-0.283-0.43c-0.222-0.358-0.418-0.739-0.59-1.134c-0.049-0.084-0.086-0.182-0.124-0.292
		c-0.072-0.173-0.134-0.358-0.195-0.543c-0.063-0.197-0.123-0.394-0.173-0.603c-0.037-0.146-0.073-0.308-0.11-0.466
		c-0.012-0.024-0.012-0.063-0.012-0.099c-0.05-0.209-0.099-0.43-0.124-0.65c-0.11-0.614-0.159-1.256-0.171-1.918
		c-0.013-1.268-0.013-2.545-0.013-3.81c0-2.545,0.013-5.102,0.013-7.646c0-3.541-0.013-7.092,0-10.645
		c0.024-4.965,1.695-7.104,6.489-8.506c2.397-0.7,4.83-0.749,7.265-0.677c1.389,0.038,2.766,0.113,4.129,0.125
		c1.623,0.012,3.258-0.051,4.893-0.099c0.43-0.012,0.873-0.012,1.303-0.026c1.34-0.023,2.667-0.023,3.994,0.063
		c0.308,0.012,0.604,0.036,0.898,0.074c0.418,0.048,0.835,0.099,1.265,0.159c0.394,0.062,0.8,0.137,1.206,0.208
		c0.196,0.039,0.394,0.075,0.577,0.138c0.185,0.035,0.368,0.086,0.553,0.134c0.308,0.074,0.603,0.161,0.885,0.245
		c0.209,0.063,0.418,0.137,0.614,0.197c0.604,0.208,1.156,0.443,1.647,0.677c0.222,0.11,0.431,0.221,0.628,0.331
		c0.209,0.122,0.393,0.247,0.577,0.37c0.185,0.134,0.356,0.257,0.528,0.394c0.173,0.122,0.332,0.269,0.467,0.43
		c0.147,0.122,0.258,0.257,0.356,0.394c0.124,0.135,0.234,0.269,0.32,0.418c0.099,0.146,0.196,0.295,0.294,0.441
		c0.099,0.161,0.186,0.319,0.258,0.48c0.099,0.196,0.186,0.405,0.259,0.626c0.185,0.504,0.332,1.045,0.431,1.635
		c0.049,0.257,0.086,0.517,0.11,0.8c0.025,0.183,0.037,0.367,0.05,0.564c0.023,0.232,0.037,0.468,0.037,0.713
		c0.012,0.259,0.012,0.504,0.012,0.775c0,1.596,0.012,3.195,0.012,4.806V942.165z"/>
	<path fill-rule="evenodd" clip-rule="evenodd" fill="#DF5B28" d="M1639.512,911.428c-6.121,16.058-12.239,32.094-18.396,48.133
		c-6.392,16.68-12.978,33.28-19.136,50.039c-1.462,3.976-3.254,6.002-7.6,5.301c-1.598-0.273-3.273-0.038-4.93-0.038h-2.863
		c-8.049,0-8.049,0-5.106-7.737c2.376-6.234,4.716-12.491,7.113-18.726c0.621-1.637,1.44-2.924-1.502-3.118
		c-3.273-0.235-5.163-2.377-6.255-5.594c-7.716-23.013-15.549-45.987-23.442-68.942c-0.915-2.708-0.446-3.778,2.514-3.721
		c4.638,0.115,9.296,0.153,13.934-0.021c2.376-0.077,3.392,0.897,4.053,3.042c4.892,15.608,9.841,31.196,14.828,46.786
		c0.821,2.532,1.17,6.549,3.781,6.664c2.886,0.137,3.117-3.976,4.054-6.393c5.924-15.394,11.807-30.806,17.498-46.28
		c1.092-2.96,2.514-4.012,5.613-3.839c4.229,0.273,8.477,0.079,12.705,0.079C1641.167,907.063,1641.167,907.082,1639.512,911.428z"
		/>
	<path fill-rule="evenodd" clip-rule="evenodd" fill="#DF5B28" d="M812.063,910.979c-9.08,23.365-18.005,46.808-26.989,70.229
		c-3.858,10.057-7.794,20.072-11.516,30.186c-0.974,2.61-2.358,3.625-5.125,3.508c-4.5-0.175-9.022-0.156-13.523-0.02
		c-3.078,0.115-3.877-0.703-2.65-3.762c3.079-7.716,5.885-15.549,8.789-23.344c0.233-0.624,0.389-1.268,0.701-2.28
		c-5.807,0.293-7.794-3.215-9.373-7.99c-7.365-22.251-15.005-44.407-22.644-66.565c-1.013-2.94-0.526-4.014,2.67-3.915
		c4.501,0.135,9.022,0.153,13.523-0.021c2.514-0.077,3.585,0.897,4.307,3.255c4.853,15.629,9.802,31.219,14.849,46.768
		c0.8,2.475,0.994,6.432,3.956,6.47c2.63,0.02,2.864-3.896,3.76-6.218c5.963-15.511,11.887-31.06,17.616-46.666
		c1.032-2.809,2.455-3.765,5.359-3.608c4.501,0.235,9.021,0.196,13.543,0C812.649,906.868,813.311,907.764,812.063,910.979z"/>
	<path fill-rule="evenodd" clip-rule="evenodd" fill="#DF5B28" d="M641.772,981.968c0.02,3.001-1.129,3.781-3.878,3.664
		c-3.683-0.176-7.385-0.233-11.048,0.019c-3.118,0.195-3.956-0.955-3.936-3.975c0.135-14.887,0.078-29.795,0.058-44.682
		c0-8.633-3.527-12.531-12.218-12.978c-5.456-0.274-10.931-0.137-16.387-0.079c-3.469,0.06-5.067,1.831-5.048,5.438
		c0.078,16.408,0.04,32.795,0.021,49.185c0,6.352-0.682,7.015-7.054,7.033h-4.911c-5.339-0.019-6.703-1.306-6.742-6.801
		c-0.078-10.251-0.019-20.499-0.019-30.73c0-9.841-0.039-19.681,0-29.521c0.038-7.25,4.17-11.417,11.458-11.458
		c11.068-0.079,22.136-0.038,33.205-0.02c14.458,0.02,26.189,11.265,26.404,25.742C641.89,949.192,641.657,965.581,641.772,981.968z
		"/>
	<path fill-rule="evenodd" clip-rule="evenodd" fill="#DF5B28" d="M1096.018,982.144c0.02,2.708-0.935,3.625-3.586,3.488
		c-3.546-0.176-7.111-0.252-10.658,0.019c-3.332,0.255-4.443-0.7-4.384-4.246c0.214-14.205,0.097-28.434,0.078-42.639
		c-0.02-11.028-3.761-14.769-14.751-14.846c-4.248-0.021-8.476-0.021-12.724,0c-5.164,0.036-6.275,1.109-6.275,6.196
		c-0.019,16.135,0,32.268,0,48.402c-0.019,6.236-0.857,7.056-7.092,7.074c-1.638,0-3.274,0-4.93-0.019
		c-5.378-0.02-6.684-1.268-6.703-6.782c-0.058-10.114-0.02-20.228-0.02-30.358c0-9.978-0.02-19.954,0-29.932
		c0.02-7.036,4.091-11.343,11.087-11.4c11.75-0.118,23.52-0.233,35.271,0.021c13.212,0.252,24.319,11.612,24.572,25.39
		C1096.193,949.055,1095.92,965.601,1096.018,982.144z"/>
	<path fill-rule="evenodd" clip-rule="evenodd" fill="#DF5A27" d="M1422.121,981.383c0.059,3.548-1.091,4.503-4.423,4.249
		c-3.392-0.252-6.839-0.233-10.229,0c-3.08,0.235-4.017-0.819-3.976-3.896c0.137-14.344,0.059-28.705,0.059-43.065
		c-0.021-1.5-0.039-3.001-0.215-4.482c-0.604-5.593-3.041-8.457-8.457-9.588c-7.035-1.442-14.188-0.68-21.26-0.523
		c-3.061,0.074-3.994,2.629-3.975,5.648c0.078,16.136,0.037,32.271,0.019,48.405c0,7.17-0.272,7.444-7.346,7.444h-3.274
		c-6.878,0-7.911-0.956-7.971-8.05c-0.097-9.703-0.019-19.407-0.019-29.112c0-9.567-0.06-19.134,0-28.702
		c0.059-8.965,3.839-12.628,12.841-12.647c10.659,0,21.319-0.038,31.979,0.02c14.691,0.041,26.149,11.596,26.169,26.307
		C1422.063,949.387,1421.927,965.385,1422.121,981.383z"/>
	<path fill-rule="evenodd" clip-rule="evenodd" fill="#DF5B28" d="M1013.416,965.56c0.214,7.485-3.254,12.513-9.607,15.784
		c-10.093,5.186-20.967,5.574-31.957,4.542c-6.021-0.566-11.809-1.99-17.09-5.146c-5.437-3.272-8.496-7.812-8.457-14.399
		c0.098-18.435,0.098-36.886-0.02-55.343c-0.02-2.998,0.799-4.187,3.937-3.994c3.8,0.235,7.658,0.175,11.478,0.021
		c2.669-0.117,3.469,0.838,3.449,3.526c-0.117,15.998,0.078,31.996-0.156,47.975c-0.078,4.189,1.676,6.432,5.241,7.64
		c6.548,2.242,13.115,2.201,19.643-0.195c3.274-1.207,4.872-3.255,4.813-7.074c-0.195-15.977,0-31.975-0.156-47.956
		c-0.02-3.097,0.878-4.129,3.916-3.937c3.684,0.235,7.406,0.235,11.069,0c3.176-0.211,3.956,1.054,3.897,4.035
		c-0.156,9.43-0.059,18.843-0.059,28.275C1013.357,948.062,1013.182,956.812,1013.416,965.56z"/>
	<path fill-rule="evenodd" clip-rule="evenodd" fill="#DF5B28" d="M558.937,966.047c0.292,7.464-3.352,12.159-9.509,15.316
		c-10.23,5.243-21.221,5.594-32.348,4.463c-6.021-0.584-11.809-2.064-17.032-5.317c-5.26-3.277-8.047-7.795-8.008-14.188
		c0.137-18.453,0.117-36.886,0-55.323c-0.019-2.979,0.721-4.228,3.878-3.994c3.41,0.254,6.859,0.331,10.25-0.02
		c3.975-0.408,4.676,1.307,4.637,4.874c-0.175,15.567,0.039,31.157-0.155,46.729c-0.059,3.935,1.501,6.196,4.949,7.441
		c6.665,2.38,13.329,2.358,19.993-0.076c3.332-1.21,4.794-3.315,4.735-7.094c-0.194-15.979,0-31.958-0.156-47.956
		c-0.02-3.118,0.954-4.074,3.975-3.898c3.82,0.235,7.658,0.175,11.477,0.021c2.495-0.099,3.313,0.778,3.294,3.291
		c-0.117,9.706-0.059,19.409-0.059,29.094C558.858,948.297,558.605,957.182,558.937,966.047z"/>
	<path fill-rule="evenodd" clip-rule="evenodd" fill="#DF5A27" d="M1765.002,894.317c0.099,2.514-1.091,2.965-3.214,2.943
		c-6.841-0.079-13.661,0.118-20.501-0.099c-3.117-0.096-3.917,0.994-3.878,4.017c0.137,13.386,0.059,26.772,0.059,40.161
		c0,13.386-0.098,26.774,0.059,40.16c0.039,3.215-0.916,4.346-4.209,4.15c-4.618-0.271-9.293-0.271-13.912,0
		c-3.373,0.195-4.132-1.051-4.112-4.208c0.096-26.386-0.038-52.75,0.156-79.113c0.038-4.211-1.112-5.419-5.243-5.186
		c-6.255,0.351-12.549,0-18.843,0.139c-2.571,0.056-3.702-0.624-3.566-3.433c0.215-4.362,0.137-8.748,0.021-13.112
		c-0.078-2.242,0.585-3.197,2.961-3.197c23.774,0.06,47.548,0.06,71.321,0.021c2.046,0,2.961,0.644,2.902,2.823
		C1764.886,885.044,1764.846,889.682,1765.002,894.317z"/>
	<path fill-rule="evenodd" clip-rule="evenodd" fill="#DF5B28" d="M1166.345,985.65c-4.619-0.271-9.296-0.058-14.945-0.058
		c-5.263-0.293-11.558,0.545-17.792-0.723c-16.35-3.31-27.437-16.816-27.418-33.496c0.021-5.591-0.37-11.264,0.254-16.797
		c1.793-15.899,12.296-25.546,28.976-27.065c10.913-0.975,21.864-0.197,32.795-0.487c2.417-0.058,3.021,0.994,2.963,3.195
		c-0.116,3.956-0.175,7.932,0.021,11.886c0.115,2.67-0.78,3.567-3.509,3.507c-8.593-0.153-17.207-0.076-25.819-0.058
		c-10.971,0.039-16.837,5.553-17.81,16.584c-0.332,3.702-0.273,7.365,0.116,11.048c0.799,7.795,5.632,13.038,13.465,13.446
		c9.549,0.507,19.116,0.41,28.685,0.235c3.604-0.061,5.319,0.718,4.892,4.715c-0.353,3.097-0.371,6.312,0,9.41
		C1171.685,985.026,1169.949,985.867,1166.345,985.65z"/>
	<path fill-rule="evenodd" clip-rule="evenodd" fill="#DF5A27" d="M1209.156,928.205c0.058,12.022,0.078,24.048,0,36.07
		c-0.021,2.259,1.013,2.768,2.98,2.708c3.157-0.096,6.295,0.038,9.431-0.038c2.125-0.058,2.865,0.777,2.808,2.902
		c-0.138,4.364-0.117,8.75-0.021,13.114c0.059,1.969-0.682,2.67-2.591,2.631c-6.568-0.098-13.134,0.138-19.682-0.175
		c-6.956-0.351-11.477-5.396-11.517-12.354c-0.059-7.25-0.021-14.5-0.021-21.729c0-7.387-0.116-14.771,0.061-22.137
		c0.078-2.902-0.917-3.721-3.762-3.702c-7.269,0.058-7.269-0.079-7.269-7.346c0-0.703,0-1.383,0.02-2.066
		c0.078-2.708-0.76-6.002,0.487-8.009c1.442-2.357,5.027-0.797,7.658-0.953c2.456-0.156,2.884-1.386,2.845-3.472
		c-0.098-5.065,0.078-10.114-0.078-15.16c-0.078-2.491,0.742-3.428,3.274-3.313c4.092,0.156,8.203,0.156,12.296,0
		c2.357-0.077,3.137,0.917,3.117,3.118c-0.059,4.775,0.233,9.569-0.097,14.344c-0.253,3.779,1.207,4.812,4.695,4.482
		c2.572-0.255,5.185,0.017,7.774-0.079c2.125-0.077,2.865,0.739,2.808,2.883c-0.138,4.228-0.155,8.477,0,12.707
		c0.077,2.434-0.936,3.059-3.156,2.96c-3.002-0.135-6.023,0.041-9.023-0.058C1210.228,925.459,1209.136,925.905,1209.156,928.205z"
		/>
	<path fill-rule="evenodd" clip-rule="evenodd" fill="#DF5A27" d="M725.563,969.828c-0.116,4.364-0.096,8.75,0,13.114
		c0.04,1.95-0.68,2.689-2.61,2.65c-6.547-0.079-13.114,0.138-19.662-0.175c-6.976-0.331-11.497-5.378-11.536-12.296
		c-0.02-7.229,0-14.479,0-21.729c0-7.365-0.098-14.752,0.058-22.115c0.039-2.789-0.76-3.819-3.702-3.8
		c-7.581,0.076-7.581-0.079-7.581-7.523c0-0.545-0.02-1.09,0.02-1.636c0.194-2.845-1.13-6.256,0.584-8.38
		c1.714-2.145,5.145-0.701,7.794-0.838c2.456-0.118,2.884-1.422,2.845-3.486c-0.078-5.048,0.098-10.113-0.058-15.162
		c-0.078-2.476,0.644-3.409,3.215-3.274c3.819,0.178,7.658,0.196,11.478-0.02c2.767-0.135,3.877,0.624,3.741,3.605
		c-0.253,4.91,0.039,9.841-0.117,14.75c-0.078,2.71,1.014,3.663,3.625,3.567c3.001-0.099,6.001,0.041,9.003-0.038
		c2.006-0.061,2.98,0.545,2.902,2.787c-0.135,4.364-0.096,8.748-0.019,13.114c0.039,1.947-0.721,2.689-2.649,2.629
		c-3.138-0.077-6.275,0.099-9.413-0.058c-2.436-0.117-3.449,0.701-3.43,3.233c0.078,11.752,0.078,23.503,0,35.232
		c-0.02,2.437,1.111,3.061,3.255,3.001c3.137-0.096,6.274,0.038,9.431-0.038C724.823,966.888,725.623,967.685,725.563,969.828z"/>
	<path fill-rule="evenodd" clip-rule="evenodd" fill="#DF5A27" d="M1555.115,922.809c0.059,2.201-0.818,2.845-2.902,2.785
		c-3.684-0.135-7.366-0.058-11.069-0.039c-4.91,0.039-7.754,2.708-7.873,7.875c-0.135,7.228-0.037,14.476-0.037,21.726
		c0,8.885-0.078,17.772,0.057,26.657c0.04,2.708-0.584,3.994-3.623,3.838c-4.365-0.232-8.75-0.194-13.116-0.019
		c-2.726,0.099-3.525-0.956-3.488-3.584c0.119-9.433,0.041-18.865,0.041-28.297c0-8.475-0.059-16.953,0.019-25.408
		c0.118-12.959,8.477-21.261,21.318-21.28c5.884,0,11.771,0.077,17.636-0.038c2.298-0.041,3.136,0.739,3.039,3.078
		C1554.979,914.332,1554.999,918.579,1555.115,922.809z"/>
	<path fill-rule="evenodd" clip-rule="evenodd" fill="#E05D2A" d="M1252.961,982.3c0,2.475-0.78,3.431-3.292,3.332
		c-3.684-0.156-7.386-0.233-11.051,0.019c-3.352,0.235-4.481-0.758-4.402-4.268c0.214-11.73,0.076-23.481,0.076-35.211
		c0-11.888,0.08-23.755-0.059-35.621c-0.038-2.708,0.8-3.663,3.488-3.548c3.938,0.175,7.911,0.137,11.868,0
		c2.378-0.077,3.391,0.624,3.371,3.236C1252.883,934.265,1252.902,958.273,1252.961,982.3z"/>
	<path fill-rule="evenodd" clip-rule="evenodd" fill="#E05D2A" d="M672.132,982.105c0,2.688-0.819,3.663-3.527,3.526
		c-3.664-0.176-7.365-0.214-11.049,0.019c-3.136,0.195-4.247-0.72-4.189-4.071c0.214-11.731,0.097-23.48,0.097-35.213
		c0-11.866,0.078-23.752-0.058-35.621c-0.039-2.825,0.76-3.918,3.683-3.742c3.799,0.196,7.639,0.156,11.458,0
		c2.592-0.096,3.605,0.703,3.585,3.469C672.054,934.344,672.054,958.232,672.132,982.105z"/>
	<path fill-rule="evenodd" clip-rule="evenodd" fill="#E05D2A" d="M672.093,886.797c0,9.237,0,9.237-9.139,9.237
		c-9.509,0-9.509,0-9.509-9.627c0-8.887,0-8.887,9.1-8.887h0.409C672.093,877.521,672.093,877.521,672.093,886.797z"/>
	<path fill-rule="evenodd" clip-rule="evenodd" fill="#E05D2A" d="M1252.922,886.717c0,9.317,0,9.317-9.45,9.317
		c-9.18,0-9.18,0-9.18-9.14c0-9.374,0-9.374,9.413-9.374C1252.922,877.521,1252.922,877.521,1252.922,886.717z"/>
	<path fill-rule="evenodd" clip-rule="evenodd" fill="#FFFFFE" d="M1783.455,928.475c0.221-0.125,0.431-0.247,0.651-0.358
		c-0.221,0.111-0.442,0.233-0.651,0.37c-0.443,0.257-0.873,0.528-1.278,0.823C1782.582,929.003,1783.012,928.731,1783.455,928.475z"
		/>
	<path fill-rule="evenodd" clip-rule="evenodd" fill="#FFFFFE" d="M1786.049,927.108c0.86-0.43,1.733-0.812,2.605-1.154
		C1787.782,926.309,1786.909,926.69,1786.049,927.108z"/>
	<path fill-rule="evenodd" clip-rule="evenodd" fill="#FFFFFE" d="M1788.654,925.954c1.045-0.418,2.103-0.775,3.172-1.083
		C1790.769,925.179,1789.711,925.536,1788.654,925.954z"/>
	<path fill-rule="evenodd" clip-rule="evenodd" fill="#FFFFFE" d="M1798.599,937.397c2.986,0,5.985-0.012,8.984-0.012
		c-2.999,0.012-5.998,0.023-8.997,0.023h-3.811C1796.054,937.409,1797.319,937.397,1798.599,937.397z"/>
	<path fill-rule="evenodd" clip-rule="evenodd" fill="#FFFFFE" d="M1450.408,961.512c0.012-0.465,0.049-0.897,0.136-1.303
		c-0.074,0.405-0.124,0.838-0.124,1.303c-0.012,0.296,0,0.591,0.025,0.874C1450.42,962.103,1450.408,961.808,1450.408,961.512z"/>
	<path fill-rule="evenodd" clip-rule="evenodd" fill="#FFFFFE" d="M1451.121,964.77c0.185,0.344,0.405,0.651,0.651,0.946
		C1451.515,965.421,1451.293,965.113,1451.121,964.77z"/>
	<path fill-rule="evenodd" clip-rule="evenodd" fill="#FFFFFE" d="M195.092,967.163c0.205,0.005,0.409,0.015,0.613,0.015
		c-0.184,0-0.369,0-0.541-0.012c-0.32,0-0.652-0.013-0.971-0.024c-0.344-0.012-0.701-0.023-1.045-0.036
		c-0.11,0-0.221-0.012-0.332-0.023c0.098,0.012,0.208,0.012,0.307,0.012C193.776,967.13,194.429,967.151,195.092,967.163z"/>
	<path fill-rule="evenodd" clip-rule="evenodd" fill="#FFFFFE" d="M208.218,966.491c-0.061,0.012-0.135,0.036-0.196,0.036
		c-4.081,0.528-8.198,0.736-12.316,0.65c4.118,0.074,8.235-0.135,12.316-0.662C208.083,966.503,208.157,966.503,208.218,966.491z"/>
	<path fill-rule="evenodd" clip-rule="evenodd" fill="#FFFFFE" d="M1284.413,963.946c0.381,0.382,0.799,0.726,1.267,1.032
		C1285.212,964.672,1284.782,964.328,1284.413,963.946z"/>
	<path fill-rule="evenodd" clip-rule="evenodd" fill="#FFFFFE" d="M1289.87,966.453c0.947,0.124,1.893,0.235,2.84,0.333
		c-0.947-0.086-1.893-0.196-2.84-0.319c-0.823-0.112-1.586-0.295-2.285-0.555C1288.284,966.16,1289.047,966.343,1289.87,966.453z"/>
	<path fill-rule="evenodd" clip-rule="evenodd" fill="#FFFFFE" d="M1314.318,926.249c0.308,0.086,0.614,0.158,0.896,0.257
		c-0.282-0.084-0.577-0.171-0.885-0.245c-0.185-0.048-0.368-0.099-0.553-0.134C1313.962,926.162,1314.134,926.198,1314.318,926.249z
		"/>
	<path fill-rule="evenodd" clip-rule="evenodd" fill="#FFFFFE" d="M1315.215,926.506c0.849,0.247,1.599,0.53,2.262,0.874
		C1316.813,927.061,1316.063,926.765,1315.215,926.506z"/>
	<path fill-rule="evenodd" clip-rule="evenodd" fill="#FFFFFE" d="M1321.815,935.751v4.806c0-1.61-0.012-3.21-0.012-4.806
		c0-0.271,0-0.517-0.012-0.775C1321.804,935.22,1321.815,935.479,1321.815,935.751z"/>
	<path fill-rule="evenodd" clip-rule="evenodd" fill="#FFFFFE" d="M1321.804,954.999c0-1.61,0.012-3.222,0.012-4.818v4.818
		c0,0.848-0.049,1.659-0.147,2.408C1321.755,956.646,1321.804,955.847,1321.804,954.999z"/>
</g>
</svg>
